<?xml version="1.0" encoding="UTF-8" standalone="no"?>
<!-- Created with Inkscape (http://www.inkscape.org/) -->

<svg
   xmlns:dc="http://purl.org/dc/elements/1.1/"
   xmlns:cc="http://creativecommons.org/ns#"
   xmlns:rdf="http://www.w3.org/1999/02/22-rdf-syntax-ns#"
   xmlns:svg="http://www.w3.org/2000/svg"
   xmlns="http://www.w3.org/2000/svg"
   xmlns:sodipodi="http://sodipodi.sourceforge.net/DTD/sodipodi-0.dtd"
   xmlns:inkscape="http://www.inkscape.org/namespaces/inkscape"
   width="128"
   height="128"
   viewBox="0 0 49.606299 124.72441"
   id="svg4418"
   version="1.1"
   inkscape:version="0.92.2 5c3e80d, 2017-08-06"
   sodipodi:docname="1439410433_scaled.svg">
  <defs
     id="defs4420" />
  <sodipodi:namedview
     id="base"
     pagecolor="#ffffff"
     bordercolor="#666666"
     borderopacity="1.0"
     inkscape:pageopacity="0.0"
     inkscape:pageshadow="2"
     inkscape:zoom="3.959798"
     inkscape:cx="-14.0918"
     inkscape:cy="61.054858"
     inkscape:document-units="px"
     inkscape:current-layer="layer1"
     showgrid="false"
     fit-margin-top="0"
     fit-margin-left="0"
     fit-margin-right="0"
     fit-margin-bottom="0"
     inkscape:window-width="1920"
     inkscape:window-height="1031"
     inkscape:window-x="0"
     inkscape:window-y="1"
     inkscape:window-maximized="1" />
  <metadata
     id="metadata4423">
    <rdf:RDF>
      <cc:Work
         rdf:about="">
        <dc:format>image/svg+xml</dc:format>
        <dc:type
           rdf:resource="http://purl.org/dc/dcmitype/StillImage" />
        <dc:title></dc:title>
      </cc:Work>
    </rdf:RDF>
  </metadata>
  <g
     inkscape:label="Layer 1"
     inkscape:groupmode="layer"
     id="layer1"
     transform="translate(249.70793,-168.7109)">
    <path
       style="color:#000000;font-style:normal;font-variant:normal;font-weight:normal;font-stretch:normal;font-size:medium;line-height:normal;font-family:sans-serif;text-indent:0;text-align:start;text-decoration:none;text-decoration-line:none;text-decoration-style:solid;text-decoration-color:#000000;letter-spacing:normal;word-spacing:normal;text-transform:none;writing-mode:lr-tb;direction:ltr;baseline-shift:baseline;text-anchor:start;white-space:normal;clip-rule:nonzero;display:inline;overflow:visible;visibility:visible;opacity:1;isolation:auto;mix-blend-mode:normal;color-interpolation:sRGB;color-interpolation-filters:linearRGB;solid-color:#000000;solid-opacity:1;fill:#393939;fill-opacity:1;fill-rule:evenodd;stroke:none;stroke-width:35.08947372;stroke-linecap:round;stroke-linejoin:round;stroke-miterlimit:4;stroke-dasharray:none;stroke-dashoffset:0;stroke-opacity:1;color-rendering:auto;image-rendering:auto;shape-rendering:auto;text-rendering:auto;enable-background:accumulate"
       d="m -223.68677,180.17391 c -0.64683,0.043 -1.28623,0.15439 -1.90423,0.34806 l -43.57263,13.28877 c -4.01163,1.22571 -6.35482,5.38953 -5.32369,9.45987 l 5.07797,45.74307 c 0.23508,2.0809 1.28875,3.98223 2.9281,5.28283 l 32.22896,25.63569 c 0.13933,0.12051 0.28297,0.2367 0.42982,0.34807 0.20443,0.16029 0.41638,0.31146 0.63424,0.45079 0.21895,0.14041 0.44435,0.27059 0.6762,0.38894 0.22002,0.11351 0.4465,0.21518 0.67621,0.30717 l 0.16353,0.063 c 0.16139,0.063 0.326,0.11405 0.49168,0.16353 0.14902,0.043 0.29857,0.0839 0.45081,0.12266 l 0.10491,0.0215 h 0.043 c 0.17591,0.043 0.35343,0.0731 0.53257,0.1049 l 0.51158,0.063 h 0.12265 c 0.156,0.0108 0.31363,0.0216 0.4707,0.0216 0.21895,-0.005 0.43736,-0.0216 0.65523,-0.043 0.2609,-0.0216 0.52127,-0.0538 0.77787,-0.10491 0.26198,-0.0538 0.52182,-0.11029 0.77787,-0.18451 0.73807,-0.20981 1.44203,-0.52719 2.08859,-0.94142 l 40.52166,-22.74864 c 2.32339,-1.30754 3.82652,-3.70485 3.9928,-6.36806 l 2.96893,-48.9782 c 0.11943,-2.03743 -0.55563,-4.04166 -1.88367,-5.58988 -0.0538,-0.0629 -0.10813,-0.12372 -0.16354,-0.18452 -0.30179,-0.32707 -0.63009,-0.62902 -0.98235,-0.90057 -0.063,-0.0538 -0.12265,-0.0942 -0.1845,-0.14363 l -0.12266,-0.0839 c -0.17215,-0.13019 -0.35021,-0.25284 -0.53258,-0.36904 -0.15385,-0.0839 -0.31147,-0.16891 -0.4707,-0.24529 -0.0732,-0.0322 -0.15009,-0.0732 -0.22539,-0.10491 -0.16139,-0.0839 -0.32493,-0.156 -0.49169,-0.2254 l -0.063,-0.0216 c -0.10813,-0.0322 -0.21787,-0.0732 -0.32707,-0.10491 l -37.9827,-14.00542 c -0.98864,-0.36258 -2.04011,-0.5229 -3.09185,-0.4707 z m -1.58924,7.74045 c 3.41096,-0.47985 6.75866,0.32492 7.47365,1.80186 0.71397,1.47462 -1.48269,3.06217 -4.89377,3.54228 -3.41097,0.48039 -6.73932,-0.32707 -7.45322,-1.8018 -0.71498,-1.47661 1.46225,-3.06217 4.87334,-3.54234 z m -21.92969,6.18368 c 3.6113,-0.54301 7.14681,0.37655 7.9037,2.04757 0.75587,1.66943 -1.56909,3.47031 -5.1804,4.01332 -3.6114,0.54306 -7.14781,-0.37818 -7.90369,-2.04765 -0.75695,-1.67162 1.56909,-3.47019 5.18039,-4.01324 z m 44.0641,0.88066 c 3.81164,0.52235 6.24402,2.24485 5.44656,3.84935 -0.79885,1.60663 -4.52205,2.48768 -8.33368,1.96571 -3.81175,-0.52235 -6.26565,-2.26325 -5.46712,-3.86995 0.79783,-1.60442 4.5426,-2.46713 8.35424,-1.94511 z m -24.6325,0.24531 c 4.21235,-0.52235 8.33137,0.35827 9.21409,1.96566 0.88169,1.60453 -1.80751,3.32742 -6.01991,3.8495 -4.21236,0.52234 -8.35293,-0.3615 -9.23453,-1.96572 -0.88271,-1.60669 1.82806,-3.32737 6.04035,-3.84944 z m 1.51524,7.98557 c 3.07432,0.11027 5.64373,0.97078 6.32698,2.27288 0.90892,1.7343 -1.8788,3.59254 -6.22465,4.15652 -4.34593,0.56403 -8.61234,-0.37442 -9.52126,-2.10898 -0.91102,-1.7366 1.87878,-3.61307 6.22466,-4.17711 1.08644,-0.14041 2.16948,-0.18022 3.19427,-0.14363 z m -36.50682,7.48275 c 1.53552,0.0941 3.38439,1.74139 4.68887,4.36136 1.73988,3.49338 1.83225,7.41686 0.20442,8.74316 -1.6253,1.3246 -4.34194,-0.43842 -6.08124,-3.93138 -1.73988,-3.49321 -1.83015,-7.39807 -0.20442,-8.72267 0.40669,-0.33137 0.88062,-0.48307 1.39249,-0.45079 z m 71.32418,3.85828 c 0.70348,-0.0942 1.3914,-0.0322 2.0066,0.26628 2.45745,1.18424 2.92923,5.29486 1.06481,9.1732 -1.86452,3.87818 -5.36426,6.05746 -7.82182,4.87322 -2.46083,-1.1859 -2.94968,-5.27443 -1.0852,-9.15276 1.39835,-2.90869 3.72433,-4.86407 5.83561,-5.15984 z m -54.14496,5.90866 c 1.66753,0.10489 3.70227,1.84344 5.11895,4.60714 1.88874,3.68479 1.99262,7.79461 0.2254,9.19365 -1.76506,1.39727 -4.74525,-0.4508 -6.63418,-4.13612 -1.88842,-3.6849 -1.9902,-7.81693 -0.22541,-9.2142 0.44111,-0.35019 0.95927,-0.48523 1.51524,-0.45079 z m 31.90817,3.36686 c 0.70342,-0.0941 1.39146,-0.0322 2.00665,0.26628 2.45746,1.18424 2.92913,5.29486 1.0647,9.17314 -1.86452,3.87823 -5.36414,6.05757 -7.8217,4.87333 -2.46084,-1.18591 -2.92924,-5.27453 -1.06477,-9.15271 1.39835,-2.90869 3.70378,-4.86423 5.81512,-5.15994 z m -47.03984,1.73164 c 1.40344,0.10491 3.10767,1.7754 4.29997,4.4433 1.59001,3.55718 1.67184,7.53596 0.18452,8.88658 -1.48554,1.34879 -3.97958,-0.4352 -5.56944,-3.99281 -1.59017,-3.55718 -1.66983,-7.53774 -0.1845,-8.88658 0.37226,-0.33784 0.80197,-0.48417 1.26945,-0.45081 z m 16.17594,10.99556 c 1.66753,0.1049 3.68171,1.84333 5.09851,4.60705 1.88873,3.68478 1.99261,7.7947 0.22539,9.19374 -1.76506,1.39727 -4.7248,-0.45079 -6.61369,-4.13623 -1.88842,-3.68488 -1.99025,-7.81681 -0.2254,-9.21408 0.44111,-0.35021 0.95921,-0.48522 1.51519,-0.45079 z m 52.60922,3.46918 c 0.70348,-0.0942 1.39151,-0.0108 2.00671,0.28727 2.45745,1.18423 2.92912,5.2744 1.06472,9.15269 -1.86454,3.87824 -5.36417,6.07791 -7.82173,4.89366 -2.46084,-1.1859 -2.94978,-5.29496 -1.0853,-9.17314 1.39844,-2.90868 3.72431,-4.86412 5.8356,-5.15995 z m -66.96282,0.62584 c 1.3155,0.0839 2.91617,1.5238 4.03369,3.80863 1.49055,3.04624 1.55808,6.46043 0.16355,7.61697 -1.39242,1.15508 -3.73121,-0.37335 -5.22138,-3.41947 -1.48968,-3.04619 -1.55618,-6.4621 -0.16354,-7.61708 0.34914,-0.28942 0.74856,-0.41744 1.18758,-0.38893 z m 45.46324,9.50964 c 0.70341,-0.0941 1.39146,-0.0108 2.00665,0.28726 2.45745,1.18419 2.94957,5.29486 1.08515,9.17315 -1.86453,3.87824 -5.38459,6.05745 -7.84216,4.87322 -2.46084,-1.18591 -2.92934,-5.29497 -1.06486,-9.17315 1.39845,-2.90879 3.70388,-4.86423 5.81522,-5.15994 z m -30.12681,1.73165 c 1.66752,0.1049 3.70221,1.84344 5.11895,4.60705 1.88873,3.68478 1.97217,7.7947 0.20442,9.19369 -1.76501,1.39726 -4.72475,-0.4508 -6.61369,-4.13606 -1.88842,-3.685 -1.9902,-7.79649 -0.22542,-9.19376 0.44167,-0.3502 0.95928,-0.50513 1.51519,-0.47071 z"
       id="path2434"
       inkscape:connector-curvature="0"
       sodipodi:nodetypes="ccccccccccccccccccccccccccccccccccccccccccccccccsccccccccccccccccccccccccccccccscccccccccccccsccccccccccccccccccccccccccccccccccsccccccccc" />
  </g>
</svg>
